<svg width="421" height="60" viewBox="0 0 421 60" fill="none" xmlns="http://www.w3.org/2000/svg">
<mask id="path-1-outside-1_250_24" maskUnits="userSpaceOnUse" x="0.607544" y="0.804443" width="420" height="59" fill="black">
<rect fill="white" x="0.607544" y="0.804443" width="420" height="59"/>
<path d="M34.545 34.6208L26.7052 11.8044L18.3732 34.6208H34.545ZM23.049 4.14038H30.9591L49.6974 55.7849H42.0333L36.795 40.3162H16.3693L10.7794 55.7849H3.60754L23.049 4.14038Z"/>
<path d="M86.8589 4.14038V10.2927H69.4566V55.7849H62.355V10.2927H44.9527V4.14038H86.8589Z"/>
<path d="M92.0283 4.14038H99.0947V25.4802H125.954V4.14038H133.021V55.7849H125.954V31.6326H99.0947V55.7849H92.0283V4.14038Z"/>
<path d="M142.444 4.14038H149.44V49.6326H175.596V55.7849H142.444V4.14038Z"/>
<path d="M181.75 4.14038H219.402V10.4685H188.57V26.1482H217.082V32.1248H188.57V49.6326H219.93V55.7849H181.75V4.14038Z"/>
<path d="M254.173 34.6208L246.333 11.8044L238.001 34.6208H254.173ZM242.677 4.14038H250.587L269.326 55.7849H261.661L256.423 40.3162H235.997L230.408 55.7849H223.236L242.677 4.14038Z"/>
<path d="M296.573 2.80444C301.425 2.80444 305.62 3.74194 309.159 5.61694C314.292 8.31226 317.432 13.0349 318.581 19.7849H311.655C310.811 16.0115 309.065 13.2693 306.417 11.5583C303.768 9.82397 300.428 8.95679 296.397 8.95679C291.616 8.95679 287.585 10.7498 284.303 14.3357C281.046 17.9216 279.417 23.2654 279.417 30.3669C279.417 36.5076 280.764 41.5115 283.46 45.3787C286.155 49.2224 290.55 51.1443 296.643 51.1443C301.307 51.1443 305.163 49.7966 308.21 47.1013C311.28 44.3826 312.85 39.9998 312.921 33.9529H296.749V28.1521H319.425V55.7849H314.925L313.237 49.1404C310.87 51.7419 308.772 53.5466 306.944 54.5544C303.874 56.2888 299.971 57.156 295.237 57.156C289.12 57.156 283.858 55.1755 279.452 51.2146C274.647 46.2458 272.245 39.4255 272.245 30.7537C272.245 22.1052 274.589 15.2263 279.276 10.1169C283.729 5.24194 289.495 2.80444 296.573 2.80444Z"/>
<path d="M336.442 4.14038V36.0623C336.442 39.8123 337.145 42.9294 338.551 45.4138C340.637 49.1638 344.153 51.0388 349.098 51.0388C355.028 51.0388 359.059 49.0115 361.192 44.9568C362.34 42.7537 362.914 39.7888 362.914 36.0623V4.14038H370.016V33.1443C370.016 39.4958 369.16 44.3826 367.449 47.8044C364.309 54.0388 358.379 57.156 349.66 57.156C340.942 57.156 335.024 54.0388 331.906 47.8044C330.196 44.3826 329.34 39.4958 329.34 33.1443V4.14038H336.442Z"/>
<path d="M380.107 4.14038H417.759V10.4685H386.927V26.1482H415.439V32.1248H386.927V49.6326H418.287V55.7849H380.107V4.14038Z"/>
</mask>
<path d="M34.545 34.6208L26.7052 11.8044L18.3732 34.6208H34.545ZM23.049 4.14038H30.9591L49.6974 55.7849H42.0333L36.795 40.3162H16.3693L10.7794 55.7849H3.60754L23.049 4.14038Z" fill="white"/>
<path d="M86.8589 4.14038V10.2927H69.4566V55.7849H62.355V10.2927H44.9527V4.14038H86.8589Z" fill="white"/>
<path d="M92.0283 4.14038H99.0947V25.4802H125.954V4.14038H133.021V55.7849H125.954V31.6326H99.0947V55.7849H92.0283V4.14038Z" fill="white"/>
<path d="M142.444 4.14038H149.44V49.6326H175.596V55.7849H142.444V4.14038Z" fill="white"/>
<path d="M181.75 4.14038H219.402V10.4685H188.57V26.1482H217.082V32.1248H188.57V49.6326H219.93V55.7849H181.75V4.14038Z" fill="white"/>
<path d="M254.173 34.6208L246.333 11.8044L238.001 34.6208H254.173ZM242.677 4.14038H250.587L269.326 55.7849H261.661L256.423 40.3162H235.997L230.408 55.7849H223.236L242.677 4.14038Z" fill="white"/>
<path d="M296.573 2.80444C301.425 2.80444 305.62 3.74194 309.159 5.61694C314.292 8.31226 317.432 13.0349 318.581 19.7849H311.655C310.811 16.0115 309.065 13.2693 306.417 11.5583C303.768 9.82397 300.428 8.95679 296.397 8.95679C291.616 8.95679 287.585 10.7498 284.303 14.3357C281.046 17.9216 279.417 23.2654 279.417 30.3669C279.417 36.5076 280.764 41.5115 283.46 45.3787C286.155 49.2224 290.55 51.1443 296.643 51.1443C301.307 51.1443 305.163 49.7966 308.21 47.1013C311.28 44.3826 312.85 39.9998 312.921 33.9529H296.749V28.1521H319.425V55.7849H314.925L313.237 49.1404C310.87 51.7419 308.772 53.5466 306.944 54.5544C303.874 56.2888 299.971 57.156 295.237 57.156C289.12 57.156 283.858 55.1755 279.452 51.2146C274.647 46.2458 272.245 39.4255 272.245 30.7537C272.245 22.1052 274.589 15.2263 279.276 10.1169C283.729 5.24194 289.495 2.80444 296.573 2.80444Z" fill="white"/>
<path d="M336.442 4.14038V36.0623C336.442 39.8123 337.145 42.9294 338.551 45.4138C340.637 49.1638 344.153 51.0388 349.098 51.0388C355.028 51.0388 359.059 49.0115 361.192 44.9568C362.34 42.7537 362.914 39.7888 362.914 36.0623V4.14038H370.016V33.1443C370.016 39.4958 369.16 44.3826 367.449 47.8044C364.309 54.0388 358.379 57.156 349.66 57.156C340.942 57.156 335.024 54.0388 331.906 47.8044C330.196 44.3826 329.34 39.4958 329.34 33.1443V4.14038H336.442Z" fill="white"/>
<path d="M380.107 4.14038H417.759V10.4685H386.927V26.1482H415.439V32.1248H386.927V49.6326H418.287V55.7849H380.107V4.14038Z" fill="white"/>
<path d="M34.545 34.6208V36.6208H37.347L36.4365 33.9709L34.545 34.6208ZM26.7052 11.8044L28.5967 11.1545L26.7626 5.81678L24.8265 11.1184L26.7052 11.8044ZM18.3732 34.6208L16.4945 33.9348L15.5136 36.6208H18.3732V34.6208ZM23.049 4.14038V2.14038H21.6648L21.1772 3.43576L23.049 4.14038ZM30.9591 4.14038L32.8392 3.45823L32.361 2.14038H30.9591V4.14038ZM49.6974 55.7849V57.7849H52.5506L51.5775 55.1028L49.6974 55.7849ZM42.0333 55.7849L40.139 56.4264L40.599 57.7849H42.0333V55.7849ZM36.795 40.3162L38.6894 39.6747L38.2293 38.3162H36.795V40.3162ZM16.3693 40.3162V38.3162H14.9654L14.4883 39.6365L16.3693 40.3162ZM10.7794 55.7849V57.7849H12.1833L12.6604 56.4646L10.7794 55.7849ZM3.60754 55.7849L1.73578 55.0803L0.717632 57.7849H3.60754V55.7849ZM86.8589 4.14038H88.8589V2.14038H86.8589V4.14038ZM86.8589 10.2927V12.2927H88.8589V10.2927H86.8589ZM69.4566 10.2927V8.29272H67.4566V10.2927H69.4566ZM69.4566 55.7849V57.7849H71.4566V55.7849H69.4566ZM62.355 55.7849H60.355V57.7849H62.355V55.7849ZM62.355 10.2927H64.355V8.29272H62.355V10.2927ZM44.9527 10.2927H42.9527V12.2927H44.9527V10.2927ZM44.9527 4.14038V2.14038H42.9527V4.14038H44.9527ZM92.0283 4.14038V2.14038H90.0283V4.14038H92.0283ZM99.0947 4.14038H101.095V2.14038H99.0947V4.14038ZM99.0947 25.4802H97.0947V27.4802H99.0947V25.4802ZM125.954 25.4802V27.4802H127.954V25.4802H125.954ZM125.954 4.14038V2.14038H123.954V4.14038H125.954ZM133.021 4.14038H135.021V2.14038H133.021V4.14038ZM133.021 55.7849V57.7849H135.021V55.7849H133.021ZM125.954 55.7849H123.954V57.7849H125.954V55.7849ZM125.954 31.6326H127.954V29.6326H125.954V31.6326ZM99.0947 31.6326V29.6326H97.0947V31.6326H99.0947ZM99.0947 55.7849V57.7849H101.095V55.7849H99.0947ZM92.0283 55.7849H90.0283V57.7849H92.0283V55.7849ZM142.444 4.14038V2.14038H140.444V4.14038H142.444ZM149.44 4.14038H151.44V2.14038H149.44V4.14038ZM149.44 49.6326H147.44V51.6326H149.44V49.6326ZM175.596 49.6326H177.596V47.6326H175.596V49.6326ZM175.596 55.7849V57.7849H177.596V55.7849H175.596ZM142.444 55.7849H140.444V57.7849H142.444V55.7849ZM181.75 4.14038V2.14038H179.75V4.14038H181.75ZM219.402 4.14038H221.402V2.14038H219.402V4.14038ZM219.402 10.4685V12.4685H221.402V10.4685H219.402ZM188.57 10.4685V8.46851H186.57V10.4685H188.57ZM188.57 26.1482H186.57V28.1482H188.57V26.1482ZM217.082 26.1482H219.082V24.1482H217.082V26.1482ZM217.082 32.1248V34.1248H219.082V32.1248H217.082ZM188.57 32.1248V30.1248H186.57V32.1248H188.57ZM188.57 49.6326H186.57V51.6326H188.57V49.6326ZM219.93 49.6326H221.93V47.6326H219.93V49.6326ZM219.93 55.7849V57.7849H221.93V55.7849H219.93ZM181.75 55.7849H179.75V57.7849H181.75V55.7849ZM254.173 34.6208V36.6208H256.975L256.065 33.9709L254.173 34.6208ZM246.333 11.8044L248.225 11.1545L246.391 5.81678L244.455 11.1184L246.333 11.8044ZM238.001 34.6208L236.123 33.9348L235.142 36.6208H238.001V34.6208ZM242.677 4.14038V2.14038H241.293L240.805 3.43576L242.677 4.14038ZM250.587 4.14038L252.467 3.45823L251.989 2.14038H250.587V4.14038ZM269.326 55.7849V57.7849H272.179L271.206 55.1028L269.326 55.7849ZM261.661 55.7849L259.767 56.4264L260.227 57.7849H261.661V55.7849ZM256.423 40.3162L258.318 39.6747L257.857 38.3162H256.423V40.3162ZM235.997 40.3162V38.3162H234.594L234.116 39.6365L235.997 40.3162ZM230.408 55.7849V57.7849H231.811L232.289 56.4646L230.408 55.7849ZM223.236 55.7849L221.364 55.0803L220.346 57.7849H223.236V55.7849ZM309.159 5.61694L308.223 7.38425L308.229 7.38766L309.159 5.61694ZM318.581 19.7849V21.7849H320.95L320.552 19.4495L318.581 19.7849ZM311.655 19.7849L309.703 20.2213L310.053 21.7849H311.655V19.7849ZM306.417 11.5583L305.321 13.2315L305.331 13.2383L306.417 11.5583ZM284.303 14.3357L282.828 12.9855L282.823 12.9908L284.303 14.3357ZM283.46 45.3787L281.819 46.5223L281.822 46.5269L283.46 45.3787ZM308.21 47.1013L309.535 48.5993L309.536 48.5987L308.21 47.1013ZM312.921 33.9529L314.921 33.9761L314.944 31.9529H312.921V33.9529ZM296.749 33.9529H294.749V35.9529H296.749V33.9529ZM296.749 28.1521V26.1521H294.749V28.1521H296.749ZM319.425 28.1521H321.425V26.1521H319.425V28.1521ZM319.425 55.7849V57.7849H321.425V55.7849H319.425ZM314.925 55.7849L312.986 56.2772L313.369 57.7849H314.925V55.7849ZM313.237 49.1404L315.176 48.6481L314.26 45.0441L311.758 47.7944L313.237 49.1404ZM306.944 54.5544L305.979 52.803L305.969 52.808L305.96 52.8131L306.944 54.5544ZM279.452 51.2146L278.014 52.6049L278.063 52.6552L278.115 52.702L279.452 51.2146ZM279.276 10.1169L280.75 11.469L280.753 11.4658L279.276 10.1169ZM336.442 4.14038H338.442V2.14038H336.442V4.14038ZM338.551 45.4138L340.299 44.4416L340.295 44.4351L340.292 44.4286L338.551 45.4138ZM361.192 44.9568L362.962 45.8879L362.965 45.8813L361.192 44.9568ZM362.914 4.14038V2.14038H360.914V4.14038H362.914ZM370.016 4.14038H372.016V2.14038H370.016V4.14038ZM367.449 47.8044L369.236 48.7042L369.238 48.6989L367.449 47.8044ZM329.34 4.14038V2.14038H327.34V4.14038H329.34ZM380.107 4.14038V2.14038H378.107V4.14038H380.107ZM417.759 4.14038H419.759V2.14038H417.759V4.14038ZM417.759 10.4685V12.4685H419.759V10.4685H417.759ZM386.927 10.4685V8.46851H384.927V10.4685H386.927ZM386.927 26.1482H384.927V28.1482H386.927V26.1482ZM415.439 26.1482H417.439V24.1482H415.439V26.1482ZM415.439 32.1248V34.1248H417.439V32.1248H415.439ZM386.927 32.1248V30.1248H384.927V32.1248H386.927ZM386.927 49.6326H384.927V51.6326H386.927V49.6326ZM418.287 49.6326H420.287V47.6326H418.287V49.6326ZM418.287 55.7849V57.7849H420.287V55.7849H418.287ZM380.107 55.7849H378.107V57.7849H380.107V55.7849ZM36.4365 33.9709L28.5967 11.1545L24.8137 12.4544L32.6536 35.2708L36.4365 33.9709ZM24.8265 11.1184L16.4945 33.9348L20.2518 35.3069L28.5839 12.4905L24.8265 11.1184ZM18.3732 36.6208H34.545V32.6208H18.3732V36.6208ZM23.049 6.14038H30.9591V2.14038H23.049V6.14038ZM29.079 4.82253L47.8173 56.4671L51.5775 55.1028L32.8392 3.45823L29.079 4.82253ZM49.6974 53.7849H42.0333V57.7849H49.6974V53.7849ZM43.9277 55.1434L38.6894 39.6747L34.9007 40.9577L40.139 56.4264L43.9277 55.1434ZM36.795 38.3162H16.3693V42.3162H36.795V38.3162ZM14.4883 39.6365L8.89846 55.1052L12.6604 56.4646L18.2502 40.9959L14.4883 39.6365ZM10.7794 53.7849H3.60754V57.7849H10.7794V53.7849ZM5.47931 56.4895L24.9207 4.845L21.1772 3.43576L1.73578 55.0803L5.47931 56.4895ZM84.8589 4.14038V10.2927H88.8589V4.14038H84.8589ZM86.8589 8.29272H69.4566V12.2927H86.8589V8.29272ZM67.4566 10.2927V55.7849H71.4566V10.2927H67.4566ZM69.4566 53.7849H62.355V57.7849H69.4566V53.7849ZM64.355 55.7849V10.2927H60.355V55.7849H64.355ZM62.355 8.29272H44.9527V12.2927H62.355V8.29272ZM46.9527 10.2927V4.14038H42.9527V10.2927H46.9527ZM44.9527 6.14038H86.8589V2.14038H44.9527V6.14038ZM92.0283 6.14038H99.0947V2.14038H92.0283V6.14038ZM97.0947 4.14038V25.4802H101.095V4.14038H97.0947ZM99.0947 27.4802H125.954V23.4802H99.0947V27.4802ZM127.954 25.4802V4.14038H123.954V25.4802H127.954ZM125.954 6.14038H133.021V2.14038H125.954V6.14038ZM131.021 4.14038V55.7849H135.021V4.14038H131.021ZM133.021 53.7849H125.954V57.7849H133.021V53.7849ZM127.954 55.7849V31.6326H123.954V55.7849H127.954ZM125.954 29.6326H99.0947V33.6326H125.954V29.6326ZM97.0947 31.6326V55.7849H101.095V31.6326H97.0947ZM99.0947 53.7849H92.0283V57.7849H99.0947V53.7849ZM94.0283 55.7849V4.14038H90.0283V55.7849H94.0283ZM142.444 6.14038H149.44V2.14038H142.444V6.14038ZM147.44 4.14038V49.6326H151.44V4.14038H147.44ZM149.44 51.6326H175.596V47.6326H149.44V51.6326ZM173.596 49.6326V55.7849H177.596V49.6326H173.596ZM175.596 53.7849H142.444V57.7849H175.596V53.7849ZM144.444 55.7849V4.14038H140.444V55.7849H144.444ZM181.75 6.14038H219.402V2.14038H181.75V6.14038ZM217.402 4.14038V10.4685H221.402V4.14038H217.402ZM219.402 8.46851H188.57V12.4685H219.402V8.46851ZM186.57 10.4685V26.1482H190.57V10.4685H186.57ZM188.57 28.1482H217.082V24.1482H188.57V28.1482ZM215.082 26.1482V32.1248H219.082V26.1482H215.082ZM217.082 30.1248H188.57V34.1248H217.082V30.1248ZM186.57 32.1248V49.6326H190.57V32.1248H186.57ZM188.57 51.6326H219.93V47.6326H188.57V51.6326ZM217.93 49.6326V55.7849H221.93V49.6326H217.93ZM219.93 53.7849H181.75V57.7849H219.93V53.7849ZM183.75 55.7849V4.14038H179.75V55.7849H183.75ZM256.065 33.9709L248.225 11.1545L244.442 12.4544L252.282 35.2708L256.065 33.9709ZM244.455 11.1184L236.123 33.9348L239.88 35.3069L248.212 12.4905L244.455 11.1184ZM238.001 36.6208H254.173V32.6208H238.001V36.6208ZM242.677 6.14038H250.587V2.14038H242.677V6.14038ZM248.707 4.82253L267.445 56.4671L271.206 55.1028L252.467 3.45823L248.707 4.82253ZM269.326 53.7849H261.661V57.7849H269.326V53.7849ZM263.556 55.1434L258.318 39.6747L254.529 40.9576L259.767 56.4264L263.556 55.1434ZM256.423 38.3162H235.997V42.3162H256.423V38.3162ZM234.116 39.6365L228.527 55.1052L232.289 56.4646L237.878 40.9959L234.116 39.6365ZM230.408 53.7849H223.236V57.7849H230.408V53.7849ZM225.107 56.4895L244.549 4.845L240.805 3.43576L221.364 55.0803L225.107 56.4895ZM296.573 4.80444C301.167 4.80444 305.027 5.69114 308.223 7.38423L310.095 3.84965C306.213 1.79275 301.683 0.804443 296.573 0.804443V4.80444ZM308.229 7.38766C312.706 9.73871 315.544 13.8597 316.609 20.1204L320.552 19.4495C319.321 12.2101 315.877 6.8858 310.089 3.84623L308.229 7.38766ZM318.581 17.7849H311.655V21.7849H318.581V17.7849ZM313.607 19.3485C312.676 15.1858 310.687 11.9358 307.502 9.87841L305.331 13.2383C307.444 14.6027 308.947 16.8371 309.703 20.2213L313.607 19.3485ZM307.512 9.88519C304.46 7.8862 300.712 6.95679 296.397 6.95679V10.9568C300.145 10.9568 303.077 11.7618 305.321 13.2315L307.512 9.88519ZM296.397 6.95679C291.044 6.95679 286.481 8.99339 282.828 12.9856L285.779 15.6858C288.689 12.5061 292.188 10.9568 296.397 10.9568V6.95679ZM282.823 12.9908C279.104 17.0844 277.417 22.9958 277.417 30.3669H281.417C281.417 23.5349 282.987 18.7589 285.784 15.6806L282.823 12.9908ZM277.417 30.3669C277.417 36.7936 278.828 42.2312 281.819 46.5222L285.101 44.2351C282.701 40.7918 281.417 36.2215 281.417 30.3669H277.417ZM281.822 46.5269C285 51.0595 290.113 53.1443 296.643 53.1443V49.1443C290.986 49.1443 287.31 47.3854 285.097 44.2304L281.822 46.5269ZM296.643 53.1443C301.719 53.1443 306.069 51.6653 309.535 48.5993L306.885 45.6033C304.257 47.928 300.895 49.1443 296.643 49.1443V53.1443ZM309.536 48.5987C313.196 45.3576 314.847 40.3168 314.921 33.9761L310.921 33.9296C310.854 39.6827 309.364 43.4076 306.884 45.604L309.536 48.5987ZM312.921 31.9529H296.749V35.9529H312.921V31.9529ZM298.749 33.9529V28.1521H294.749V33.9529H298.749ZM296.749 30.1521H319.425V26.1521H296.749V30.1521ZM317.425 28.1521V55.7849H321.425V28.1521H317.425ZM319.425 53.7849H314.925V57.7849H319.425V53.7849ZM316.863 55.2926L315.176 48.6481L311.299 49.6327L312.986 56.2772L316.863 55.2926ZM311.758 47.7944C309.452 50.3288 307.527 51.9493 305.979 52.803L307.91 56.3059C310.017 55.1439 312.288 53.1551 314.716 50.4864L311.758 47.7944ZM305.96 52.8131C303.276 54.3296 299.74 55.156 295.237 55.156V59.156C300.202 59.156 304.472 58.248 307.928 56.2958L305.96 52.8131ZM295.237 55.156C289.596 55.156 284.815 53.3465 280.789 49.7272L278.115 52.702C282.901 57.0045 288.644 59.156 295.237 59.156V55.156ZM280.89 49.8243C276.532 45.3176 274.245 39.0454 274.245 30.7537H270.245C270.245 39.8057 272.763 47.1741 278.014 52.6049L280.89 49.8243ZM274.245 30.7537C274.245 22.4767 276.479 16.1242 280.75 11.469L277.802 8.76488C272.698 14.3284 270.245 21.7337 270.245 30.7537H274.245ZM280.753 11.4658C284.797 7.03803 290.011 4.80444 296.573 4.80444V0.804443C288.978 0.804443 282.661 3.44586 277.799 8.76807L280.753 11.4658ZM334.442 4.14038V36.0623H338.442V4.14038H334.442ZM334.442 36.0623C334.442 40.0525 335.189 43.5343 336.81 46.399L340.292 44.4286C339.101 42.3246 338.442 39.572 338.442 36.0623H334.442ZM336.803 46.386C339.302 50.879 343.56 53.0388 349.098 53.0388V49.0388C344.745 49.0388 341.971 47.4487 340.299 44.4416L336.803 46.386ZM349.098 53.0388C355.514 53.0388 360.378 50.7992 362.962 45.8879L359.422 44.0257C357.739 47.2238 354.541 49.0388 349.098 49.0388V53.0388ZM362.965 45.8813C364.318 43.2855 364.914 39.9629 364.914 36.0623H360.914C360.914 39.6147 360.362 42.2219 359.418 44.0323L362.965 45.8813ZM364.914 36.0623V4.14038H360.914V36.0623H364.914ZM362.914 6.14038H370.016V2.14038H362.914V6.14038ZM368.016 4.14038V33.1443H372.016V4.14038H368.016ZM368.016 33.1443C368.016 39.3655 367.17 43.8914 365.661 46.91L369.238 48.6989C371.151 44.8737 372.016 39.6262 372.016 33.1443H368.016ZM365.663 46.9046C362.953 52.2846 357.849 55.156 349.66 55.156V59.156C358.91 59.156 365.665 55.793 369.236 48.7042L365.663 46.9046ZM349.66 55.156C341.472 55.156 336.383 52.2849 333.695 46.91L330.118 48.6989C333.665 55.7928 340.411 59.156 349.66 59.156V55.156ZM333.695 46.91C332.186 43.8914 331.34 39.3655 331.34 33.1443H327.34C327.34 39.6262 328.205 44.8737 330.118 48.6989L333.695 46.91ZM331.34 33.1443V4.14038H327.34V33.1443H331.34ZM329.34 6.14038H336.442V2.14038H329.34V6.14038ZM380.107 6.14038H417.759V2.14038H380.107V6.14038ZM415.759 4.14038V10.4685H419.759V4.14038H415.759ZM417.759 8.46851H386.927V12.4685H417.759V8.46851ZM384.927 10.4685V26.1482H388.927V10.4685H384.927ZM386.927 28.1482H415.439V24.1482H386.927V28.1482ZM413.439 26.1482V32.1248H417.439V26.1482H413.439ZM415.439 30.1248H386.927V34.1248H415.439V30.1248ZM384.927 32.1248V49.6326H388.927V32.1248H384.927ZM386.927 51.6326H418.287V47.6326H386.927V51.6326ZM416.287 49.6326V55.7849H420.287V49.6326H416.287ZM418.287 53.7849H380.107V57.7849H418.287V53.7849ZM382.107 55.7849V4.14038H378.107V55.7849H382.107Z" fill="white" mask="url(#path-1-outside-1_250_24)"/>
</svg>
