<svg width="417" height="55" viewBox="0 0 417 55" fill="none" xmlns="http://www.w3.org/2000/svg">
<path d="M18.826 33.2335L25.5219 14.3695H25.666L32.146 33.2335H18.826ZM19.9059 1.69747L0.465949 53.1055H11.8419L15.8739 41.6575H35.098L38.986 53.1055H50.722L31.498 1.69747H19.9059ZM64.371 11.2015V53.1055H75.675V11.2015H91.083V1.69747H48.963V11.2015H64.371ZM95.5706 1.69747V53.1055H106.875V30.9295H127.683V53.1055H138.987V1.69747H127.683V21.4255H106.875V1.69747H95.5706ZM143.538 1.69747V53.1055H179.898V43.6015H154.842V1.69747H143.538ZM184.058 1.69747V53.1055H223.082V43.6015H195.362V31.0015H220.274V22.2175H195.362V11.2015H222.506V1.69747H184.058ZM245.145 33.2335L251.841 14.3695H251.985L258.465 33.2335H245.145ZM246.225 1.69747L226.785 53.1055H238.161L242.193 41.6575H261.417L265.305 53.1055H277.041L257.817 1.69747H246.225ZM315.026 47.2735L316.178 53.1055H323.378V25.3135H301.778V33.7375H313.154C312.818 37.3375 311.618 40.0975 309.554 42.0175C307.538 43.8895 304.658 44.8255 300.914 44.8255C298.37 44.8255 296.21 44.3455 294.434 43.3855C292.658 42.3775 291.218 41.0575 290.114 39.4255C289.01 37.7935 288.194 35.9695 287.666 33.9535C287.186 31.8895 286.946 29.7775 286.946 27.6175C286.946 25.3615 287.186 23.1775 287.666 21.0655C288.194 18.9535 289.01 17.0815 290.114 15.4495C291.218 13.7695 292.658 12.4495 294.434 11.4895C296.21 10.4815 298.37 9.97747 300.914 9.97747C303.65 9.97747 305.978 10.6975 307.898 12.1375C309.818 13.5775 311.114 15.7375 311.786 18.6175H322.586C322.298 15.6895 321.506 13.0975 320.21 10.8415C318.914 8.58547 317.258 6.68947 315.242 5.15347C313.274 3.61747 311.042 2.46547 308.546 1.69747C306.098 0.881467 303.554 0.473468 300.914 0.473468C296.978 0.473468 293.426 1.16947 290.258 2.56147C287.138 3.95347 284.498 5.87347 282.338 8.32147C280.178 10.7695 278.522 13.6495 277.37 16.9615C276.218 20.2255 275.642 23.7775 275.642 27.6175C275.642 31.3615 276.218 34.8655 277.37 38.1295C278.522 41.3455 280.178 44.1535 282.338 46.5535C284.498 48.9535 287.138 50.8495 290.258 52.2415C293.426 53.5855 296.978 54.2575 300.914 54.2575C303.41 54.2575 305.882 53.7535 308.33 52.7455C310.778 51.6895 313.01 49.8655 315.026 47.2735ZM372.539 33.6655V1.69747H361.235V33.6655C361.235 37.5055 360.467 40.3375 358.931 42.1615C357.395 43.9375 354.611 44.8255 350.579 44.8255C348.275 44.8255 346.427 44.5135 345.035 43.8895C343.691 43.2175 342.635 42.3775 341.867 41.3695C341.099 40.3135 340.595 39.1135 340.355 37.7695C340.115 36.4255 339.995 35.0575 339.995 33.6655V1.69747H328.691V33.6655C328.691 40.6735 330.587 45.8575 334.379 49.2175C338.219 52.5775 343.619 54.2575 350.579 54.2575C357.443 54.2575 362.819 52.5775 366.707 49.2175C370.595 45.8095 372.539 40.6255 372.539 33.6655ZM377.234 1.69747V53.1055H416.258V43.6015H388.538V31.0015H413.45V22.2175H388.538V11.2015H415.682V1.69747H377.234Z" fill="white"/>
</svg>
